<svg width="215" height="40" viewBox="0 0 215 40" fill="none" xmlns="http://www.w3.org/2000/svg">
<path d="M124.888 33.2604C124.655 33.2604 124.457 33.1904 124.294 33.0505C124.154 32.8875 124.084 32.6892 124.084 32.4561V15.9111C124.084 15.6779 124.154 15.4915 124.294 15.3516C124.457 15.1885 124.655 15.1068 124.888 15.1068H126.567C126.8 15.1068 126.987 15.1885 127.125 15.3516C127.265 15.4915 127.336 15.6779 127.336 15.9111V32.4561C127.336 32.6892 127.265 32.8875 127.125 33.0505C126.985 33.1904 126.8 33.2604 126.567 33.2604H124.888Z" fill="#121619"/>
<path d="M124.014 11.7572C124.177 11.897 124.375 11.9669 124.608 11.9669H126.811C127.044 11.9669 127.23 11.897 127.37 11.7572C127.534 11.594 127.615 11.3959 127.615 11.1628V9.27475C127.615 9.04165 127.534 8.85517 127.37 8.71532C127.23 8.55216 127.044 8.47057 126.811 8.47057H124.608C124.375 8.47057 124.177 8.55216 124.014 8.71532C123.874 8.85517 123.804 9.04165 123.804 9.27475V11.1628C123.804 11.3959 123.874 11.594 124.014 11.7572Z" fill="#121619"/>
<path d="M117.525 33.2604C116.219 33.2604 115.159 33.0155 114.343 32.526C113.527 32.0133 112.933 31.3024 112.56 30.3933C112.187 29.4608 112 28.3653 112 27.1065V17.8761H109.273C109.04 17.8761 108.842 17.8061 108.679 17.6664C108.539 17.5032 108.469 17.3051 108.469 17.0719V15.8832C108.469 15.65 108.539 15.4635 108.679 15.3237C108.842 15.1605 109.04 15.0789 109.273 15.0789H112V9.27475C112 9.04165 112.07 8.85517 112.21 8.71532C112.373 8.55216 112.571 8.47057 112.805 8.47057H114.448C114.681 8.47057 114.867 8.55216 115.007 8.71532C115.17 8.85517 115.252 9.04165 115.252 9.27475V15.0789H119.588C119.821 15.0789 120.007 15.1605 120.147 15.3237C120.31 15.4635 120.391 15.65 120.391 15.8832V17.0719C120.391 17.3051 120.31 17.5032 120.147 17.6664C120.007 17.8061 119.821 17.8761 119.588 17.8761H115.252V26.8619C115.252 27.9573 115.439 28.8199 115.811 29.4492C116.184 30.0785 116.849 30.3933 117.804 30.3933H119.937C120.17 30.3933 120.357 30.4748 120.496 30.638C120.66 30.7779 120.742 30.9644 120.742 31.1973V32.4561C120.742 32.6892 120.66 32.8873 120.496 33.0504C120.357 33.1904 120.17 33.2604 119.937 33.2604H117.525Z" fill="#121619"/>
<path d="M98.6037 33.2656C96.9488 33.2656 95.5152 32.9508 94.3031 32.3215C93.1144 31.6688 92.1937 30.7481 91.5411 29.5593C90.8883 28.3472 90.5387 26.902 90.4921 25.2237C90.4688 24.8741 90.4571 24.4079 90.4571 23.8252C90.4571 23.2425 90.4688 22.7763 90.4921 22.4265C90.5387 20.7484 90.8883 19.3148 91.5411 18.126C92.1937 16.914 93.1144 15.9932 94.3031 15.3639C95.5152 14.7112 96.9488 14.3848 98.6037 14.3848C99.9557 14.3848 101.109 14.5715 102.065 14.9444C103.044 15.3173 103.848 15.7951 104.478 16.3779C105.107 16.9605 105.573 17.5899 105.876 18.2659C106.203 18.9419 106.377 19.5828 106.401 20.1889C106.424 20.422 106.354 20.6085 106.191 20.7484C106.028 20.8883 105.83 20.9581 105.597 20.9581H103.918C103.685 20.9581 103.51 20.9116 103.394 20.8183C103.277 20.7017 103.161 20.5153 103.044 20.2588C102.625 19.1167 102.053 18.3125 101.331 17.8464C100.608 17.3801 99.7109 17.1471 98.6387 17.1471C97.2401 17.1471 96.098 17.5783 95.2121 18.4407C94.3497 19.3032 93.8836 20.6901 93.8137 22.6015C93.7903 23.4405 93.7903 24.2564 93.8137 25.0489C93.8836 26.9836 94.3497 28.3821 95.2121 29.2445C96.098 30.0837 97.2401 30.5033 98.6387 30.5033C99.7109 30.5033 100.608 30.2703 101.331 29.804C102.053 29.3379 102.625 28.5336 103.044 27.3916C103.161 27.1352 103.277 26.9604 103.394 26.8671C103.51 26.7505 103.685 26.6923 103.918 26.6923H105.597C105.83 26.6923 106.028 26.7621 106.191 26.902C106.354 27.0419 106.424 27.2284 106.401 27.4615C106.377 27.9509 106.273 28.4521 106.086 28.9649C105.9 29.4777 105.597 30.0021 105.177 30.5383C104.781 31.0511 104.28 31.5173 103.673 31.9368C103.067 32.3331 102.333 32.6595 101.471 32.9159C100.632 33.1489 99.676 33.2656 98.6037 33.2656Z" fill="#121619"/>
<path d="M77.2913 33.2656C76.126 33.2656 75.0653 33.0324 74.1097 32.5663C73.154 32.1 72.3848 31.4707 71.8021 30.6781C71.2192 29.8856 70.928 28.9883 70.928 27.9859C70.928 26.3776 71.5805 25.0956 72.886 24.1399C74.1912 23.1843 75.8928 22.5548 77.9907 22.2517L83.2003 21.5176V20.5036C83.2003 19.3847 82.874 18.5105 82.2213 17.8813C81.592 17.2519 80.5547 16.9373 79.1095 16.9373C78.0605 16.9373 77.2099 17.1471 76.5572 17.5665C75.9279 17.9863 75.4849 18.5224 75.2285 19.1749C75.0887 19.5245 74.844 19.6995 74.4943 19.6995H72.9209C72.6644 19.6995 72.4663 19.6296 72.3265 19.4896C72.21 19.3265 72.1517 19.14 72.1517 18.9303C72.1517 18.5805 72.2799 18.1493 72.5363 17.6365C72.816 17.1237 73.2356 16.6225 73.7951 16.1331C74.3544 15.6436 75.0653 15.2356 75.9279 14.9093C76.8136 14.5596 77.8859 14.3848 79.1445 14.3848C80.5431 14.3848 81.7201 14.5715 82.6759 14.9444C83.6315 15.294 84.3775 15.7717 84.9136 16.3779C85.4731 16.9839 85.8692 17.6716 86.1023 18.4407C86.3588 19.2099 86.4869 19.9908 86.4869 20.7833V32.0785C86.4869 32.3116 86.4053 32.5099 86.2421 32.6731C86.1023 32.8128 85.9159 32.8828 85.6828 32.8828H84.0744C83.8181 32.8828 83.6199 32.8128 83.4801 32.6731C83.3401 32.5099 83.2701 32.3116 83.2701 32.0785V30.6083C82.9672 31.0277 82.5593 31.4475 82.0465 31.8669C81.5337 32.2632 80.8927 32.6012 80.1235 32.8809C79.3543 33.1373 78.4101 33.2656 77.2913 33.2656ZM78.0256 30.6432C78.9813 30.6432 79.8553 30.4451 80.648 30.0488C81.4404 29.6292 82.0581 28.9883 82.5011 28.1257C82.9672 27.2633 83.2003 26.1795 83.2003 24.8741V23.8951L79.1445 24.4896C77.4895 24.7225 76.2424 25.1188 75.4033 25.6783C74.5641 26.2144 74.1447 26.902 74.1447 27.7412C74.1447 28.3939 74.3312 28.9416 74.7041 29.3845C75.1003 29.804 75.5899 30.1187 76.1725 30.3285C76.7785 30.5383 77.3963 30.6432 78.0256 30.6432Z" fill="#121619"/>
<path d="M59.8909 33.2603C59.6579 33.2603 59.4597 33.1904 59.2965 33.0504C59.1567 32.8873 59.0868 32.6892 59.0868 32.4561V15.9791C59.0868 15.7459 59.1567 15.5477 59.2965 15.3845C59.4597 15.2215 59.6579 15.1399 59.8909 15.1399H61.4992C61.7324 15.1399 61.9305 15.2215 62.0937 15.3845C62.2569 15.5477 62.3384 15.7459 62.3384 15.9791V17.5175C62.8047 16.7249 63.4456 16.1304 64.2615 15.7343C65.0772 15.338 66.0563 15.1399 67.1984 15.1399H68.5971C68.8301 15.1399 69.0165 15.2215 69.1564 15.3845C69.2963 15.5244 69.3661 15.7109 69.3661 15.944V17.3775C69.3661 17.6107 69.2963 17.7972 69.1564 17.9371C69.0165 18.0768 68.8301 18.1468 68.5971 18.1468H66.4992C65.2404 18.1468 64.2499 18.5197 63.5272 19.2656C62.8047 19.9883 62.4433 20.9788 62.4433 22.2376V32.4561C62.4433 32.6892 62.3617 32.8873 62.1985 33.0504C62.0353 33.1904 61.8372 33.2603 61.6041 33.2603H59.8909Z" fill="#121619"/>
<path d="M52.6517 33.2604C51.3464 33.2604 50.2859 33.0155 49.4701 32.526C48.6541 32.0133 48.0599 31.3024 47.6869 30.3933C47.314 29.4608 47.1275 28.3653 47.1275 27.1065V17.8761H44.4001C44.1672 17.8761 43.9691 17.8061 43.8059 17.6664C43.666 17.5032 43.5961 17.3051 43.5961 17.0719V15.8832C43.5961 15.65 43.666 15.4635 43.8059 15.3237C43.9691 15.1605 44.1672 15.0789 44.4001 15.0789H47.1275V9.27475C47.1275 9.04165 47.1973 8.85517 47.3372 8.71532C47.5004 8.55216 47.6985 8.47057 47.9316 8.47057H49.5749C49.8081 8.47057 49.9945 8.55216 50.1343 8.71532C50.2975 8.85517 50.3792 9.04165 50.3792 9.27475V15.0789H54.7147C54.9477 15.0789 55.1341 15.1605 55.2741 15.3237C55.4372 15.4635 55.5188 15.65 55.5188 15.8832V17.0719C55.5188 17.3051 55.4372 17.5032 55.2741 17.6664C55.1341 17.8061 54.9477 17.8761 54.7147 17.8761H50.3792V26.8619C50.3792 27.9573 50.5656 28.8199 50.9385 29.4492C51.3115 30.0785 51.9759 30.3933 52.9315 30.3933H55.0643C55.2973 30.3933 55.4839 30.4748 55.6237 30.638C55.7869 30.7779 55.8684 30.9644 55.8684 31.1973V32.4561C55.8684 32.6892 55.7869 32.8873 55.6237 33.0504C55.4839 33.1904 55.2973 33.2604 55.0643 33.2604H52.6517Z" fill="#121619"/>
<path d="M139.893 33.2656C138.121 33.2656 136.641 32.9276 135.452 32.2516C134.264 31.5756 133.355 30.6432 132.725 29.4544C132.096 28.2424 131.747 26.8671 131.677 25.3285C131.654 24.9324 131.642 24.4312 131.642 23.8252C131.642 23.1959 131.654 22.6947 131.677 22.3217C131.747 20.76 132.096 19.3847 132.725 18.196C133.379 17.0072 134.3 16.0748 135.488 15.3988C136.677 14.7228 138.145 14.3848 139.893 14.3848C141.641 14.3848 143.111 14.7228 144.299 15.3988C145.488 16.0748 146.397 17.0072 147.025 18.196C147.679 19.3847 148.04 20.76 148.111 22.3217C148.133 22.6947 148.145 23.1959 148.145 23.8252C148.145 24.4312 148.133 24.9324 148.111 25.3285C148.04 26.8671 147.691 28.2424 147.061 29.4544C146.432 30.6432 145.523 31.5756 144.333 32.2516C143.145 32.9276 141.664 33.2656 139.893 33.2656ZM139.893 30.5733C141.339 30.5733 142.492 30.1187 143.355 29.2096C144.217 28.2773 144.683 26.9253 144.753 25.1537C144.777 24.8043 144.788 24.3613 144.788 23.8252C144.788 23.2891 144.777 22.8463 144.753 22.4965C144.683 20.7251 144.217 19.3847 143.355 18.4756C142.492 17.5433 141.339 17.0771 139.893 17.0771C138.448 17.0771 137.283 17.5433 136.397 18.4756C135.535 19.3847 135.08 20.7251 135.033 22.4965C135.011 22.8463 134.999 23.2891 134.999 23.8252C134.999 24.3613 135.011 24.8043 135.033 25.1537C135.08 26.9253 135.535 28.2773 136.397 29.2096C137.283 30.1187 138.448 30.5733 139.893 30.5733Z" fill="#121619"/>
<path d="M152.724 33.2935C152.492 33.2935 152.293 33.2235 152.131 33.0836C151.991 32.9205 151.921 32.7223 151.921 32.4892V15.9163C151.921 15.6832 151.991 15.4967 152.131 15.3568C152.293 15.1936 152.492 15.112 152.724 15.112H154.368C154.601 15.112 154.788 15.1936 154.928 15.3568C155.091 15.4967 155.172 15.6832 155.172 15.9163V17.4547C155.779 16.6621 156.536 16.0211 157.444 15.5316C158.377 15.0188 159.565 14.7624 161.012 14.7624C162.527 14.7624 163.808 15.1004 164.857 15.7764C165.929 16.4291 166.733 17.3497 167.269 18.5385C167.805 19.704 168.073 21.0676 168.073 22.6293V32.4892C168.073 32.7223 168.004 32.9205 167.864 33.0836C167.724 33.2235 167.537 33.2935 167.304 33.2935H165.556C165.323 33.2935 165.125 33.2235 164.961 33.0836C164.821 32.9205 164.752 32.7223 164.752 32.4892V22.8041C164.752 21.1725 164.356 19.9021 163.563 18.9931C162.772 18.0607 161.605 17.5945 160.067 17.5945C158.621 17.5945 157.456 18.0607 156.571 18.9931C155.708 19.9021 155.277 21.1725 155.277 22.8041V32.4892C155.277 32.7223 155.195 32.9205 155.032 33.0836C154.892 33.2235 154.705 33.2935 154.472 33.2935H152.724Z" fill="#121619"/>
<path d="M10.0667 0H6.46667C2.93204 0 0.0666676 2.86537 0.0666676 6.4V33.6C0.0666676 37.1345 2.93204 40 6.46667 40H33.6667C37.2012 40 40.0667 37.1345 40.0667 33.6V6.4C40.0667 2.86537 37.2012 0 33.6667 0H30.0667V3H33.6667C35.5444 3 37.0667 4.52223 37.0667 6.4V33.6C37.0667 35.4777 35.5444 37 33.6667 37H6.46667C4.58891 37 3.06667 35.4777 3.06667 33.6V6.4C3.06667 4.52224 4.58891 3 6.46667 3H10.0667V0Z" fill="#FA4616"/>
<path d="M12.8597 33.2941C12.6298 33.2941 12.4344 33.2255 12.2736 33.0879C12.1356 32.9275 12.0667 32.7325 12.0667 32.5033V4.90844C12.0667 4.67922 12.1356 4.49586 12.2736 4.35832C12.4344 4.19787 12.6298 4.11764 12.8597 4.11764H14.584C14.8368 4.11764 15.0321 4.19787 15.1701 4.35832C15.3081 4.49586 15.3771 4.67922 15.3771 4.90844V17.6844C15.9977 16.9052 16.7563 16.2748 17.6529 15.7935C18.5493 15.3121 19.6873 15.0715 21.0667 15.0715C22.5609 15.0715 23.8252 15.4037 24.8597 16.0685C25.9172 16.7104 26.7103 17.6157 27.2391 18.7847C27.7908 19.9308 28.0667 21.2717 28.0667 22.8075V32.5033C28.0667 32.7325 27.9977 32.9275 27.8597 33.0879C27.7219 33.2255 27.5264 33.2941 27.2736 33.2941H25.5493C25.3195 33.2941 25.1241 33.2255 24.9632 33.0879C24.8252 32.9275 24.7563 32.7325 24.7563 32.5033V22.9795C24.7563 21.3748 24.3655 20.1256 23.5839 19.2316C22.8023 18.3148 21.6529 17.8564 20.1356 17.8564C18.7103 17.8564 17.5609 18.3148 16.6873 19.2316C15.8139 20.1256 15.3771 21.3748 15.3771 22.9795V32.5033C15.3771 32.7325 15.3081 32.9275 15.1701 33.0879C15.0321 33.2255 14.8368 33.2941 14.584 33.2941H12.8597Z" fill="#FA4616"/>
</svg>
